<mxfile host="www.draw.io" modified="2019-10-21T01:57:58.286Z" agent="Mozilla/5.0 (Windows NT 6.1) AppleWebKit/537.36 (KHTML, like Gecko) Chrome/77.0.3865.120 Safari/537.36" etag="oo6Dab1YcA6oqPiCDk8m" version="12.1.3" type="github" pages="1">
  <diagram id="S1BQ-QaCb_rSmjgJLZ4S" name="Page-1">
    <mxGraphModel dx="918" dy="589" grid="1" gridSize="10" guides="1" tooltips="1" connect="1" arrows="1" fold="1" page="1" pageScale="1" pageWidth="827" pageHeight="1169" math="0" shadow="0">
      <root>
        <mxCell id="0"/>
        <mxCell id="1" parent="0"/>
        <mxCell id="38_1eCyaNACQlzidqit7-1" value="" style="strokeWidth=1;shadow=0;dashed=0;align=center;html=1;shape=mxgraph.mockup.containers.browserWindow;rSize=0;fillColor=#ffffff;strokeColor=#666666;strokeColor2=#008cff;strokeColor3=#c4c4c4;mainText=,;recursiveResize=0;" parent="1" vertex="1">
          <mxGeometry x="50" y="40" width="680" height="620" as="geometry"/>
        </mxCell>
        <mxCell id="38_1eCyaNACQlzidqit7-2" value="Page 1" style="strokeWidth=1;shadow=0;dashed=0;align=center;html=1;shape=mxgraph.mockup.containers.anchor;fontSize=17;fontColor=#666666;align=left;" parent="38_1eCyaNACQlzidqit7-1" vertex="1">
          <mxGeometry x="60" y="12" width="110" height="26" as="geometry"/>
        </mxCell>
        <mxCell id="38_1eCyaNACQlzidqit7-3" value="https://search.samsungsecurities.com" style="strokeWidth=1;shadow=0;dashed=0;align=center;html=1;shape=mxgraph.mockup.containers.anchor;rSize=0;fontSize=17;fontColor=#666666;align=left;" parent="38_1eCyaNACQlzidqit7-1" vertex="1">
          <mxGeometry x="130" y="60" width="250" height="26" as="geometry"/>
        </mxCell>
        <mxCell id="38_1eCyaNACQlzidqit7-6" value="&lt;h1&gt;&lt;br&gt;&lt;/h1&gt;" style="rounded=0;whiteSpace=wrap;html=1;strokeColor=#000099;fillColor=#000099;" parent="38_1eCyaNACQlzidqit7-1" vertex="1">
          <mxGeometry y="110" width="680" height="60" as="geometry"/>
        </mxCell>
        <mxCell id="v0x7pHQmvKE8jV97begg-1" value="&lt;h3&gt;&lt;font color=&quot;#000099&quot; style=&quot;font-size: 34px&quot;&gt;&lt;b&gt;데이터 검색 포털&lt;/b&gt;&lt;/font&gt;&lt;/h3&gt;" style="text;html=1;strokeColor=none;fillColor=none;align=center;verticalAlign=middle;whiteSpace=wrap;rounded=0;fontSize=24;" parent="38_1eCyaNACQlzidqit7-1" vertex="1">
          <mxGeometry x="137.5" y="310" width="320" height="20" as="geometry"/>
        </mxCell>
        <mxCell id="v0x7pHQmvKE8jV97begg-2" value="&lt;h5&gt;&lt;font size=&quot;1&quot; color=&quot;#000099&quot;&gt;&lt;b style=&quot;font-size: 24px&quot;&gt;삼성증권&lt;/b&gt;&lt;/font&gt;&lt;/h5&gt;" style="text;html=1;strokeColor=none;fillColor=none;align=center;verticalAlign=middle;whiteSpace=wrap;rounded=0;fontSize=24;" parent="38_1eCyaNACQlzidqit7-1" vertex="1">
          <mxGeometry x="412.5" y="315" width="130" height="20" as="geometry"/>
        </mxCell>
        <mxCell id="s3t0yR068hZkqlNC1yJM-2" value="" style="shape=tapeData;whiteSpace=wrap;html=1;perimeter=ellipsePerimeter;fontSize=24;" parent="38_1eCyaNACQlzidqit7-1" vertex="1">
          <mxGeometry x="126" y="450" width="80" height="80" as="geometry"/>
        </mxCell>
        <mxCell id="s3t0yR068hZkqlNC1yJM-3" value="" style="shape=tapeData;whiteSpace=wrap;html=1;perimeter=ellipsePerimeter;fontSize=24;" parent="38_1eCyaNACQlzidqit7-1" vertex="1">
          <mxGeometry x="306" y="450" width="80" height="80" as="geometry"/>
        </mxCell>
        <mxCell id="s3t0yR068hZkqlNC1yJM-4" value="" style="shape=tapeData;whiteSpace=wrap;html=1;perimeter=ellipsePerimeter;fontSize=24;" parent="38_1eCyaNACQlzidqit7-1" vertex="1">
          <mxGeometry x="486" y="450" width="80" height="80" as="geometry"/>
        </mxCell>
        <mxCell id="s3t0yR068hZkqlNC1yJM-5" value="키워드 검색" style="text;html=1;strokeColor=none;fillColor=none;align=center;verticalAlign=middle;whiteSpace=wrap;rounded=0;fontSize=24;" parent="38_1eCyaNACQlzidqit7-1" vertex="1">
          <mxGeometry x="81" y="410" width="170" height="20" as="geometry"/>
        </mxCell>
        <mxCell id="s3t0yR068hZkqlNC1yJM-6" value="관계 검색" style="text;html=1;strokeColor=none;fillColor=none;align=center;verticalAlign=middle;whiteSpace=wrap;rounded=0;fontSize=24;" parent="38_1eCyaNACQlzidqit7-1" vertex="1">
          <mxGeometry x="261" y="410" width="170" height="20" as="geometry"/>
        </mxCell>
        <mxCell id="s3t0yR068hZkqlNC1yJM-7" value="데이터 현황" style="text;html=1;strokeColor=none;fillColor=none;align=center;verticalAlign=middle;whiteSpace=wrap;rounded=0;fontSize=24;" parent="38_1eCyaNACQlzidqit7-1" vertex="1">
          <mxGeometry x="441" y="410" width="170" height="20" as="geometry"/>
        </mxCell>
        <mxCell id="s3t0yR068hZkqlNC1yJM-9" value="" style="ellipse;whiteSpace=wrap;html=1;aspect=fixed;fontSize=24;" parent="38_1eCyaNACQlzidqit7-1" vertex="1">
          <mxGeometry x="556" y="120" width="40" height="40" as="geometry"/>
        </mxCell>
        <mxCell id="s3t0yR068hZkqlNC1yJM-8" value="" style="shape=actor;whiteSpace=wrap;html=1;fontSize=24;fontColor=#000099;fillColor=#000099;strokeColor=#0000CC;" parent="38_1eCyaNACQlzidqit7-1" vertex="1">
          <mxGeometry x="562" y="125" width="28" height="28" as="geometry"/>
        </mxCell>
        <mxCell id="s3t0yR068hZkqlNC1yJM-11" value="김삼성 님" style="text;html=1;strokeColor=none;fillColor=none;align=center;verticalAlign=middle;whiteSpace=wrap;rounded=0;labelBackgroundColor=none;fontSize=14;fontColor=#FFFFFF;fontStyle=1" parent="38_1eCyaNACQlzidqit7-1" vertex="1">
          <mxGeometry x="595" y="130" width="80" height="20" as="geometry"/>
        </mxCell>
        <mxCell id="s3t0yR068hZkqlNC1yJM-14" value="" style="strokeWidth=1;shadow=0;dashed=0;align=center;html=1;shape=mxgraph.mockup.containers.browserWindow;rSize=0;fillColor=none;strokeColor=#666666;strokeColor2=#008cff;strokeColor3=#c4c4c4;mainText=,;recursiveResize=0;fontSize=8;" parent="1" vertex="1">
          <mxGeometry x="40" y="719" width="680" height="620" as="geometry"/>
        </mxCell>
        <mxCell id="s3t0yR068hZkqlNC1yJM-15" value="Page 1" style="strokeWidth=1;shadow=0;dashed=0;align=center;html=1;shape=mxgraph.mockup.containers.anchor;fontSize=17;fontColor=#666666;align=left;" parent="s3t0yR068hZkqlNC1yJM-14" vertex="1">
          <mxGeometry x="60" y="12" width="110" height="26" as="geometry"/>
        </mxCell>
        <mxCell id="s3t0yR068hZkqlNC1yJM-16" value="https://search.samsungsecurities.com" style="strokeWidth=1;shadow=0;dashed=0;align=center;html=1;shape=mxgraph.mockup.containers.anchor;rSize=0;fontSize=17;fontColor=#666666;align=left;" parent="s3t0yR068hZkqlNC1yJM-14" vertex="1">
          <mxGeometry x="130" y="60" width="250" height="26" as="geometry"/>
        </mxCell>
        <mxCell id="s3t0yR068hZkqlNC1yJM-17" value="&lt;h1&gt;&lt;br&gt;&lt;/h1&gt;" style="rounded=0;whiteSpace=wrap;html=1;strokeColor=#000099;fillColor=#000099;" parent="s3t0yR068hZkqlNC1yJM-14" vertex="1">
          <mxGeometry y="110" width="680" height="60" as="geometry"/>
        </mxCell>
        <mxCell id="s3t0yR068hZkqlNC1yJM-18" value="&lt;h3 style=&quot;font-size: 18px;&quot;&gt;&lt;font style=&quot;font-size: 18px;&quot;&gt;&lt;b style=&quot;font-size: 18px;&quot;&gt;데이터 검색 포털&lt;/b&gt;&lt;/font&gt;&lt;/h3&gt;" style="text;html=1;strokeColor=none;fillColor=none;align=center;verticalAlign=middle;whiteSpace=wrap;rounded=0;fontSize=18;fontColor=#FFFFFF;" parent="s3t0yR068hZkqlNC1yJM-14" vertex="1">
          <mxGeometry x="10" y="129" width="150" height="20" as="geometry"/>
        </mxCell>
        <mxCell id="s3t0yR068hZkqlNC1yJM-19" value="&lt;h5 style=&quot;font-size: 12px;&quot;&gt;&lt;font style=&quot;font-size: 12px;&quot;&gt;&lt;b style=&quot;font-size: 12px;&quot;&gt;삼성증권&lt;/b&gt;&lt;/font&gt;&lt;/h5&gt;" style="text;html=1;strokeColor=none;fillColor=none;align=center;verticalAlign=middle;whiteSpace=wrap;rounded=0;fontSize=12;fontColor=#FFFFFF;" parent="s3t0yR068hZkqlNC1yJM-14" vertex="1">
          <mxGeometry x="140" y="132" width="79" height="20" as="geometry"/>
        </mxCell>
        <mxCell id="s3t0yR068hZkqlNC1yJM-26" value="" style="ellipse;whiteSpace=wrap;html=1;aspect=fixed;fontSize=24;" parent="s3t0yR068hZkqlNC1yJM-14" vertex="1">
          <mxGeometry x="556" y="120" width="40" height="40" as="geometry"/>
        </mxCell>
        <mxCell id="s3t0yR068hZkqlNC1yJM-27" value="" style="shape=actor;whiteSpace=wrap;html=1;fontSize=24;fontColor=#000099;fillColor=#000099;strokeColor=#0000CC;" parent="s3t0yR068hZkqlNC1yJM-14" vertex="1">
          <mxGeometry x="562" y="125" width="28" height="28" as="geometry"/>
        </mxCell>
        <mxCell id="s3t0yR068hZkqlNC1yJM-28" value="김삼성 님" style="text;html=1;strokeColor=none;fillColor=none;align=center;verticalAlign=middle;whiteSpace=wrap;rounded=0;labelBackgroundColor=none;fontSize=14;fontColor=#FFFFFF;fontStyle=1" parent="s3t0yR068hZkqlNC1yJM-14" vertex="1">
          <mxGeometry x="595" y="130" width="80" height="20" as="geometry"/>
        </mxCell>
        <mxCell id="qomcjagTp5DyHuAvSU2s-2" value="" style="rounded=0;whiteSpace=wrap;html=1;strokeColor=#66B2FF;fillColor=#FFFFFF;" vertex="1" parent="s3t0yR068hZkqlNC1yJM-14">
          <mxGeometry y="170" width="680" height="40" as="geometry"/>
        </mxCell>
        <mxCell id="qomcjagTp5DyHuAvSU2s-21" value="키워드 검색" style="rounded=1;fillColor=#0065FF;align=center;strokeColor=none;html=1;fontColor=#ffffff;fontSize=12;shadow=1;" vertex="1" parent="s3t0yR068hZkqlNC1yJM-14">
          <mxGeometry x="149" y="177.5" width="70" height="25" as="geometry"/>
        </mxCell>
        <mxCell id="qomcjagTp5DyHuAvSU2s-22" value="포털 홈" style="rounded=1;fillColor=#F1F2F4;align=center;strokeColor=none;html=1;fontColor=#596780;fontSize=12;shadow=1;" vertex="1" parent="s3t0yR068hZkqlNC1yJM-14">
          <mxGeometry x="74" y="177.5" width="70" height="25" as="geometry"/>
        </mxCell>
        <mxCell id="qomcjagTp5DyHuAvSU2s-23" value="관계 검색" style="rounded=1;fillColor=#F1F2F4;align=center;strokeColor=none;html=1;fontColor=#596780;fontSize=12;shadow=1;" vertex="1" parent="s3t0yR068hZkqlNC1yJM-14">
          <mxGeometry x="224" y="175.5" width="70" height="25" as="geometry"/>
        </mxCell>
        <mxCell id="qomcjagTp5DyHuAvSU2s-29" value="" style="rounded=1;fillColor=#F1F2F4;align=center;strokeColor=none;html=1;fontColor=#596780;fontSize=8;shadow=1;" vertex="1" parent="s3t0yR068hZkqlNC1yJM-14">
          <mxGeometry x="461" y="175.5" width="56" height="25" as="geometry"/>
        </mxCell>
        <mxCell id="qomcjagTp5DyHuAvSU2s-33" value="데이터 현황" style="rounded=1;fillColor=#F1F2F4;align=center;strokeColor=none;html=1;fontColor=#596780;fontSize=12;shadow=1;" vertex="1" parent="s3t0yR068hZkqlNC1yJM-14">
          <mxGeometry x="303" y="175.5" width="70" height="25" as="geometry"/>
        </mxCell>
        <mxCell id="qomcjagTp5DyHuAvSU2s-34" value="부서 통계" style="rounded=1;fillColor=#F1F2F4;align=center;strokeColor=none;html=1;fontColor=#596780;fontSize=12;shadow=1;" vertex="1" parent="s3t0yR068hZkqlNC1yJM-14">
          <mxGeometry x="382" y="175.5" width="70" height="25" as="geometry"/>
        </mxCell>
        <mxCell id="qomcjagTp5DyHuAvSU2s-52" value="" style="strokeWidth=1;shadow=0;dashed=0;align=center;html=1;shape=mxgraph.mockup.rightButton;rSize=10;fontSize=12;fontColor=#596780;fontStyle=0;fillColor=none;strokeColor=#ffffff;strokeWidth=2;resizeHeight=1;" vertex="1" parent="s3t0yR068hZkqlNC1yJM-14">
          <mxGeometry x="465" y="173.5" width="56" height="33" as="geometry">
            <mxPoint x="-56" as="offset"/>
          </mxGeometry>
        </mxCell>
        <mxCell id="qomcjagTp5DyHuAvSU2s-53" value="" style="shape=ellipse;fillColor=#596780;strokeColor=none;html=1" vertex="1" parent="qomcjagTp5DyHuAvSU2s-52">
          <mxGeometry x="11" y="11" width="6" height="6" as="geometry"/>
        </mxCell>
        <mxCell id="qomcjagTp5DyHuAvSU2s-54" value="" style="shape=ellipse;fillColor=#596780;strokeColor=none;html=1" vertex="1" parent="qomcjagTp5DyHuAvSU2s-52">
          <mxGeometry x="21" y="11" width="6" height="6" as="geometry"/>
        </mxCell>
        <mxCell id="qomcjagTp5DyHuAvSU2s-55" value="" style="shape=ellipse;fillColor=#596780;strokeColor=none;html=1" vertex="1" parent="qomcjagTp5DyHuAvSU2s-52">
          <mxGeometry x="31" y="11" width="6" height="6" as="geometry"/>
        </mxCell>
        <mxCell id="qomcjagTp5DyHuAvSU2s-56" value="설정" style="rounded=1;fillColor=#F1F2F4;align=center;strokeColor=none;html=1;fontColor=#596780;fontSize=12;shadow=1;" vertex="1" parent="s3t0yR068hZkqlNC1yJM-14">
          <mxGeometry x="531" y="175.5" width="70" height="25" as="geometry"/>
        </mxCell>
        <mxCell id="qomcjagTp5DyHuAvSU2s-77" value="Search..." style="html=1;shadow=0;dashed=0;shape=mxgraph.bootstrap.rrect;fillColor=#ffffff;rSize=5;strokeColor=#dddddd;align=left;spacingLeft=6;fontSize=14;fontColor=#dddddd;whiteSpace=wrap;" vertex="1" parent="s3t0yR068hZkqlNC1yJM-14">
          <mxGeometry x="234" y="265" width="279" height="30" as="geometry"/>
        </mxCell>
        <mxCell id="qomcjagTp5DyHuAvSU2s-78" value="검색" style="html=1;shadow=0;dashed=0;shape=mxgraph.bootstrap.rightButton;rSize=5;strokeColor=#dddddd;fillColor=none;fontSize=14;whiteSpace=wrap;resizeHeight=1;" vertex="1" parent="qomcjagTp5DyHuAvSU2s-77">
          <mxGeometry x="1" width="40" height="30" relative="1" as="geometry">
            <mxPoint x="-40" as="offset"/>
          </mxGeometry>
        </mxCell>
        <mxCell id="qomcjagTp5DyHuAvSU2s-57" value="" style="rounded=0;whiteSpace=wrap;html=1;strokeColor=#66B2FF;fillColor=#FFFFFF;" vertex="1" parent="1">
          <mxGeometry x="50" y="211" width="680" height="40" as="geometry"/>
        </mxCell>
        <mxCell id="qomcjagTp5DyHuAvSU2s-58" value="포털 홈" style="rounded=1;fillColor=#0065FF;align=center;strokeColor=none;html=1;fontColor=#ffffff;fontSize=12;shadow=1;" vertex="1" parent="1">
          <mxGeometry x="121" y="216.5" width="70" height="25" as="geometry"/>
        </mxCell>
        <mxCell id="qomcjagTp5DyHuAvSU2s-59" value="키워드 검색" style="rounded=1;fillColor=#F1F2F4;align=center;strokeColor=none;html=1;fontColor=#596780;fontSize=12;shadow=1;" vertex="1" parent="1">
          <mxGeometry x="196" y="216.5" width="70" height="25" as="geometry"/>
        </mxCell>
        <mxCell id="qomcjagTp5DyHuAvSU2s-60" value="관계 검색" style="rounded=1;fillColor=#F1F2F4;align=center;strokeColor=none;html=1;fontColor=#596780;fontSize=12;shadow=1;" vertex="1" parent="1">
          <mxGeometry x="274" y="216.5" width="70" height="25" as="geometry"/>
        </mxCell>
        <mxCell id="qomcjagTp5DyHuAvSU2s-61" value="" style="rounded=1;fillColor=#F1F2F4;align=center;strokeColor=none;html=1;fontColor=#596780;fontSize=8;shadow=1;" vertex="1" parent="1">
          <mxGeometry x="511" y="216.5" width="56" height="25" as="geometry"/>
        </mxCell>
        <mxCell id="qomcjagTp5DyHuAvSU2s-62" value="데이터 현황" style="rounded=1;fillColor=#F1F2F4;align=center;strokeColor=none;html=1;fontColor=#596780;fontSize=12;shadow=1;" vertex="1" parent="1">
          <mxGeometry x="353" y="216.5" width="70" height="25" as="geometry"/>
        </mxCell>
        <mxCell id="qomcjagTp5DyHuAvSU2s-63" value="부서 통계" style="rounded=1;fillColor=#F1F2F4;align=center;strokeColor=none;html=1;fontColor=#596780;fontSize=12;shadow=1;" vertex="1" parent="1">
          <mxGeometry x="432" y="216.5" width="70" height="25" as="geometry"/>
        </mxCell>
        <mxCell id="qomcjagTp5DyHuAvSU2s-64" value="" style="strokeWidth=1;shadow=0;dashed=0;align=center;html=1;shape=mxgraph.mockup.rightButton;rSize=10;fontSize=12;fontColor=#596780;fontStyle=0;fillColor=none;strokeColor=#ffffff;strokeWidth=2;resizeHeight=1;" vertex="1" parent="1">
          <mxGeometry x="515" y="214.5" width="56" height="33" as="geometry">
            <mxPoint x="-56" as="offset"/>
          </mxGeometry>
        </mxCell>
        <mxCell id="qomcjagTp5DyHuAvSU2s-65" value="" style="shape=ellipse;fillColor=#596780;strokeColor=none;html=1" vertex="1" parent="qomcjagTp5DyHuAvSU2s-64">
          <mxGeometry x="11" y="11" width="6" height="6" as="geometry"/>
        </mxCell>
        <mxCell id="qomcjagTp5DyHuAvSU2s-66" value="" style="shape=ellipse;fillColor=#596780;strokeColor=none;html=1" vertex="1" parent="qomcjagTp5DyHuAvSU2s-64">
          <mxGeometry x="21" y="11" width="6" height="6" as="geometry"/>
        </mxCell>
        <mxCell id="qomcjagTp5DyHuAvSU2s-67" value="" style="shape=ellipse;fillColor=#596780;strokeColor=none;html=1" vertex="1" parent="qomcjagTp5DyHuAvSU2s-64">
          <mxGeometry x="31" y="11" width="6" height="6" as="geometry"/>
        </mxCell>
        <mxCell id="qomcjagTp5DyHuAvSU2s-68" value="설정" style="rounded=1;fillColor=#F1F2F4;align=center;strokeColor=none;html=1;fontColor=#596780;fontSize=12;shadow=1;" vertex="1" parent="1">
          <mxGeometry x="581" y="216.5" width="70" height="25" as="geometry"/>
        </mxCell>
        <mxCell id="qomcjagTp5DyHuAvSU2s-69" value="Status" style="rounded=1;fillColor=none;strokeColor=none;html=1;fontColor=#596780;align=left;fontSize=11;spacingLeft=10;fontSize=11;shadow=1;" vertex="1" parent="1">
          <mxGeometry x="141" y="965" width="100" height="20" as="geometry"/>
        </mxCell>
        <mxCell id="qomcjagTp5DyHuAvSU2s-70" value="시스템" style="rounded=1;fillColor=#253858;strokeColor=none;html=1;fontColor=#ffffff;align=left;fontSize=12;spacingLeft=10;shadow=1;" vertex="1" parent="1">
          <mxGeometry x="141" y="985" width="100" height="33" as="geometry"/>
        </mxCell>
        <mxCell id="qomcjagTp5DyHuAvSU2s-71" value="" style="shape=triangle;direction=south;fillColor=#ffffff;strokeColor=none;html=1" vertex="1" parent="qomcjagTp5DyHuAvSU2s-70">
          <mxGeometry x="1" y="0.5" width="12" height="6" relative="1" as="geometry">
            <mxPoint x="-20" y="-3" as="offset"/>
          </mxGeometry>
        </mxCell>
        <mxCell id="qomcjagTp5DyHuAvSU2s-72" value="" style="rounded=1;fillColor=#ffffff;strokeColor=#DFE1E5;shadow=1;html=1;arcSize=4;fontSize=8;" vertex="1" parent="1">
          <mxGeometry x="141" y="1021" width="110" height="144" as="geometry"/>
        </mxCell>
        <mxCell id="qomcjagTp5DyHuAvSU2s-73" value="계정계" style="rounded=0;fillColor=#F4F5F7;strokeColor=none;shadow=0;html=1;align=left;fontSize=12;spacingLeft=10;fontColor=#253858;resizeWidth=1" vertex="1" parent="qomcjagTp5DyHuAvSU2s-72">
          <mxGeometry width="110" height="33" relative="1" as="geometry">
            <mxPoint y="6" as="offset"/>
          </mxGeometry>
        </mxCell>
        <mxCell id="qomcjagTp5DyHuAvSU2s-74" value="정보계" style="rounded=0;fillColor=none;strokeColor=none;shadow=0;html=1;align=left;fontSize=12;spacingLeft=10;fontColor=#253858;resizeWidth=1" vertex="1" parent="qomcjagTp5DyHuAvSU2s-72">
          <mxGeometry width="110" height="33" relative="1" as="geometry">
            <mxPoint y="39" as="offset"/>
          </mxGeometry>
        </mxCell>
        <mxCell id="qomcjagTp5DyHuAvSU2s-75" value="DW" style="rounded=0;fillColor=none;strokeColor=none;shadow=0;html=1;align=left;fontSize=12;spacingLeft=10;fontColor=#253858;resizeWidth=1" vertex="1" parent="qomcjagTp5DyHuAvSU2s-72">
          <mxGeometry width="110" height="33" relative="1" as="geometry">
            <mxPoint y="72" as="offset"/>
          </mxGeometry>
        </mxCell>
        <mxCell id="qomcjagTp5DyHuAvSU2s-76" value="데이터마트" style="rounded=0;fillColor=none;strokeColor=none;shadow=0;html=1;align=left;fontSize=12;spacingLeft=10;fontColor=#253858;resizeWidth=1" vertex="1" parent="qomcjagTp5DyHuAvSU2s-72">
          <mxGeometry width="110" height="33" relative="1" as="geometry">
            <mxPoint y="105" as="offset"/>
          </mxGeometry>
        </mxCell>
      </root>
    </mxGraphModel>
  </diagram>
</mxfile>
